<?xml version="1.0" standalone="no"?>
<!DOCTYPE svg PUBLIC "-//W3C//DTD SVG 20010904//EN"
 "http://www.w3.org/TR/2001/REC-SVG-20010904/DTD/svg10.dtd">
<svg version="1.0" xmlns="http://www.w3.org/2000/svg"
 width="1200.000000pt" height="1200.000000pt" viewBox="0 0 1200.000000 1200.000000"
 preserveAspectRatio="xMidYMid meet">
<metadata>
Created by potrace 1.14, written by Peter Selinger 2001-2017
</metadata>
<g transform="translate(0.000000,1200.000000) scale(0.100000,-0.100000)"
fill="#000000" stroke="none">
<path d="M5750 10249 c-460 -24 -983 -146 -1410 -328 -1347 -576 -2314 -1804
-2544 -3231 -45 -276 -51 -361 -50 -670 2 -518 63 -909 214 -1360 205 -618
533 -1156 990 -1624 726 -743 1618 -1171 2665 -1277 177 -18 618 -15 803 5
1005 109 1884 527 2587 1231 197 197 304 323 449 525 236 330 406 648 539
1011 297 802 341 1660 130 2509 -201 812 -660 1571 -1291 2133 -729 650 -1638
1025 -2610 1077 -197 11 -261 10 -472 -1z m460 -339 c325 -19 589 -63 890
-151 1500 -439 2607 -1752 2784 -3300 39 -343 39 -660 0 -959 -142 -1087 -733
-2065 -1632 -2700 -232 -164 -579 -350 -842 -453 -198 -77 -486 -159 -690
-196 -882 -160 -1760 -28 -2540 381 -363 190 -637 394 -946 702 -333 334 -571
666 -765 1071 -274 573 -409 1221 -385 1855 38 1051 510 2048 1306 2759 659
589 1501 940 2375 990 204 12 251 12 445 1z"/>
<path d="M6951 8230 c-189 -21 -350 -95 -483 -219 -86 -80 -129 -141 -116
-164 5 -10 6 -27 3 -38 -5 -16 -13 -19 -30 -15 -40 10 -47 -41 -15 -104 34
-66 19 -82 -32 -33 -17 16 -32 23 -37 17 -10 -10 -46 -161 -56 -236 -4 -27 -2
-69 5 -98 9 -38 9 -58 0 -82 -14 -42 -25 -223 -16 -271 6 -34 9 -37 39 -34 25
1 33 -2 35 -18 2 -15 -6 -23 -27 -32 -23 -8 -28 -15 -24 -31 3 -11 0 -43 -6
-70 -7 -35 -7 -59 1 -85 9 -30 8 -53 -6 -117 -13 -61 -14 -84 -6 -101 7 -12 9
-31 5 -43 -12 -37 -17 -1549 -5 -1706 20 -290 28 -336 76 -439 87 -186 210
-319 368 -397 125 -61 205 -82 375 -95 122 -9 153 -8 187 4 25 8 63 12 96 9
46 -4 69 1 143 32 214 87 342 202 440 396 43 86 95 234 95 272 0 27 -3 30 -25
26 -23 -5 -25 -2 -25 27 0 27 5 35 30 45 17 7 33 23 36 35 3 12 4 90 2 173 -3
150 -3 152 -31 179 -24 25 -35 28 -90 27 -34 0 -75 -1 -92 -2 -16 -2 -87 0
-157 4 -125 6 -127 6 -151 -19 -49 -48 -65 -192 -27 -240 24 -30 26 -57 4 -57
-11 0 -14 -8 -12 -32 2 -28 8 -34 31 -36 36 -4 35 -22 -3 -22 -23 0 -33 -7
-45 -30 -8 -16 -15 -39 -15 -51 0 -67 -87 -143 -204 -178 -86 -26 -146 -26
-231 0 -54 16 -77 31 -114 68 -84 87 -85 95 -90 501 -4 434 -4 472 -1 1038 2
249 0 455 -3 459 -4 3 -7 14 -7 24 0 10 -7 16 -17 15 -10 0 -19 7 -21 17 -3
13 3 17 22 17 30 0 28 -36 27 420 0 348 12 507 43 575 49 107 147 165 280 165
240 0 336 -141 336 -497 0 -69 17 -116 49 -133 12 -6 103 -10 223 -10 173 0
208 3 238 18 33 16 35 20 36 72 1 30 5 85 9 123 l7 67 -26 0 c-23 0 -26 4 -26
35 0 28 4 35 19 35 29 0 35 34 13 77 -12 24 -18 51 -15 73 5 47 -53 220 -107
313 -108 190 -283 314 -508 362 -88 18 -276 26 -371 15z"/>
<path d="M4054 8160 c-40 -12 -81 -54 -89 -89 -6 -29 49 -262 310 -1319 170
-686 268 -1064 322 -1247 21 -73 36 -144 37 -181 1 -43 6 -68 18 -81 15 -16
16 -25 7 -58 -10 -37 -8 -120 7 -294 3 -36 13 -75 21 -88 15 -22 14 -26 -10
-51 l-25 -27 2 -424 2 -424 26 -22 c35 -30 124 -39 340 -33 165 4 197 11 225
47 15 19 17 412 3 531 -4 41 -5 80 -1 85 4 6 5 69 1 140 -4 72 -5 254 -4 405
l2 275 65 225 c120 414 234 866 324 1287 23 109 31 133 46 133 13 0 17 9 17
40 0 58 38 234 146 672 105 426 104 415 41 462 -26 19 -44 21 -234 24 -212 4
-254 -2 -273 -38 -26 -49 -176 -727 -270 -1220 -137 -723 -146 -780 -115 -780
25 0 17 -26 -11 -39 -15 -6 -28 -10 -29 -9 -1 2 -7 30 -13 63 -94 516 -197
998 -242 1129 -22 66 -27 92 -19 104 8 13 3 48 -20 137 -47 189 -70 296 -86
412 -17 121 -51 203 -98 238 -26 18 -45 20 -210 22 -100 1 -196 -2 -213 -7z
m861 -3340 c-3 -5 -11 -10 -16 -10 -6 0 -7 5 -4 10 3 6 11 10 16 10 6 0 7 -4
4 -10z"/>
</g>
</svg>
